<?xml version="1.0" standalone="no"?>
<!DOCTYPE svg PUBLIC "-//W3C//DTD SVG 20010904//EN"
 "http://www.w3.org/TR/2001/REC-SVG-20010904/DTD/svg10.dtd">
<svg version="1.0" xmlns="http://www.w3.org/2000/svg"
 width="653.000000pt" height="410.000000pt" viewBox="0 0 653.000000 410.000000"
 preserveAspectRatio="xMidYMid meet">

<g transform="translate(0.000000,410.000000) scale(0.100000,-0.100000)"
fill="#000000" stroke="none">
<path d="M2720 3075 l0 -185 410 0 410 0 0 -284 0 -285 -52 -3 -53 -3 -3 -72
-3 -73 52 0 c48 0 54 -3 87 -41 30 -35 39 -40 71 -37 33 3 36 6 36 33 0 28 -3
30 -42 33 l-43 3 0 184 c0 153 2 184 15 189 22 8 21 273 -1 340 -9 26 -14 49
-12 51 2 2 22 -18 43 -45 39 -49 40 -50 96 -50 l56 0 61 -125 c53 -107 66
-127 96 -142 32 -15 37 -23 57 -100 25 -94 13 -86 154 -102 64 -7 111 -19 163
-42 l72 -32 0 -98 c0 -59 4 -99 10 -99 6 0 10 -25 10 -55 l0 -55 -39 0 c-37 0
-39 1 -45 40 -9 54 -65 116 -119 131 -73 19 -155 -12 -192 -73 l-16 -28 -208
0 -209 0 -33 45 c-31 40 -38 44 -76 45 l-42 0 31 -67 c17 -38 35 -72 40 -78
12 -14 10 -35 -5 -35 -7 0 -33 41 -57 90 l-44 90 -255 -2 -256 -3 -38 -70
c-42 -77 -63 -103 -74 -91 -4 4 9 40 30 80 20 40 37 75 37 79 0 4 -27 7 -60 7
l-60 0 0 -330 0 -330 890 0 890 0 0 890 0 890 -890 0 -890 0 0 -185z m343
-992 c34 -17 71 -93 62 -126 -24 -85 -62 -117 -140 -117 -42 0 -52 5 -86 39
-35 35 -39 44 -39 89 0 43 5 57 31 87 48 54 103 63 172 28z m274 12 c12 -3 36
-22 53 -42 30 -33 32 -41 28 -91 -4 -48 -10 -60 -41 -89 -31 -27 -44 -33 -83
-33 -82 0 -134 50 -134 130 0 26 8 56 21 76 11 19 21 34 22 34 1 0 20 7 42 15
22 8 47 12 55 10 8 -2 25 -6 37 -10z m870 0 c12 -3 36 -22 52 -41 26 -29 31
-43 31 -86 0 -45 -4 -54 -39 -89 -34 -35 -44 -39 -88 -39 -118 0 -178 124
-105 218 19 25 87 53 112 47 8 -2 25 -6 37 -10z"/>
<path d="M2952 2008 c-7 -7 -12 -24 -12 -38 0 -33 17 -50 50 -50 33 0 50 17
50 50 0 33 -17 50 -50 50 -14 0 -31 -5 -38 -12z m63 -38 c0 -18 -6 -26 -23
-28 -13 -2 -25 3 -28 12 -10 26 4 48 28 44 17 -2 23 -10 23 -28z"/>
<path d="M3252 2008 c-7 -7 -12 -24 -12 -38 0 -33 17 -50 50 -50 33 0 50 17
50 50 0 33 -17 50 -50 50 -14 0 -31 -5 -38 -12z m63 -38 c0 -18 -6 -26 -23
-28 -13 -2 -25 3 -28 12 -10 26 4 48 28 44 17 -2 23 -10 23 -28z"/>
<path d="M4122 2008 c-7 -7 -12 -24 -12 -38 0 -33 17 -50 50 -50 33 0 50 17
50 50 0 33 -17 50 -50 50 -14 0 -31 -5 -38 -12z m63 -38 c0 -18 -6 -26 -23
-28 -13 -2 -25 3 -28 12 -10 26 4 48 28 44 17 -2 23 -10 23 -28z"/>
<path d="M2820 2734 c-179 -6 -358 -12 -399 -13 -156 -2 -53 -9 289 -20 195
-6 401 -14 458 -17 l102 -6 0 36 0 36 -62 -2 c-35 0 -209 -7 -388 -14z"/>
<path d="M2659 2594 c-438 -13 -558 -20 -409 -22 170 -4 768 -21 893 -27 l127
-6 0 36 0 35 -92 -1 c-51 -1 -285 -8 -519 -15z"/>
<path d="M3770 2437 c0 -88 -2 -87 128 -87 92 0 88 -6 64 90 l-17 65 -87 3
-88 3 0 -74z"/>
<path d="M2720 2458 c-595 -16 -600 -22 -30 -36 283 -7 530 -15 548 -18 31 -5
32 -4 32 31 l0 35 -117 -2 c-65 0 -260 -5 -433 -10z"/>
<path d="M2713 2317 c-167 -5 -303 -13 -303 -17 0 -4 100 -10 223 -14 122 -3
315 -9 430 -13 l207 -6 0 31 0 32 -127 -2 c-71 -1 -264 -6 -430 -11z"/>
<path d="M1130 1198 c-81 -23 -130 -89 -130 -173 0 -94 65 -167 158 -179 75
-10 177 29 152 59 -10 12 -17 11 -43 -6 -41 -24 -112 -25 -157 0 -97 52 -97
200 0 252 45 25 116 24 157 0 26 -17 33 -18 43 -6 9 11 6 17 -13 30 -51 33
-105 41 -167 23z"/>
<path d="M1508 1200 c-82 -25 -138 -96 -138 -175 0 -119 122 -207 241 -175 88
24 139 88 139 175 0 85 -51 150 -135 174 -46 12 -69 13 -107 1z m128 -46 c46
-22 74 -70 74 -129 0 -88 -59 -145 -150 -145 -91 0 -150 57 -150 145 0 88 58
144 148 145 24 0 59 -7 78 -16z"/>
<path d="M1840 1026 c0 -178 1 -186 20 -186 18 0 20 8 22 142 l3 142 66 -114
c36 -63 71 -116 77 -118 6 -2 41 49 79 113 l68 116 5 -138 c4 -121 7 -138 23
-141 16 -3 17 11 17 183 0 166 -2 186 -16 183 -9 -2 -51 -62 -93 -135 -42 -72
-80 -128 -84 -124 -4 4 -40 64 -80 132 -103 177 -107 175 -107 -55z"/>
<path d="M2340 1026 c0 -179 1 -186 20 -186 18 0 20 7 20 60 l0 60 70 0 c117
0 171 37 174 119 2 90 -47 124 -186 129 l-98 4 0 -186z m221 115 c31 -31 35
-53 19 -96 -13 -35 -65 -55 -140 -55 l-60 0 0 90 0 90 76 0 c70 0 78 -2 105
-29z"/>
<path d="M2742 1031 c-45 -99 -82 -182 -82 -185 0 -3 7 -6 15 -6 8 0 26 23 40
50 l25 50 100 0 100 0 25 -50 c14 -27 32 -50 40 -50 8 0 15 4 15 8 0 5 -36 87
-80 183 -57 126 -84 175 -98 177 -15 2 -33 -29 -100 -177z m145 34 l42 -95
-85 0 c-46 0 -84 3 -84 8 0 12 75 182 80 182 3 0 24 -43 47 -95z"/>
<path d="M3090 1025 c0 -158 2 -185 15 -185 13 0 15 23 15 145 0 80 3 145 8
145 4 -1 58 -66 120 -145 62 -80 120 -145 128 -145 12 0 14 31 14 186 0 171
-1 185 -17 182 -16 -3 -19 -20 -23 -146 l-5 -143 -114 146 c-63 80 -120 145
-128 145 -10 0 -13 -37 -13 -185z"/>
<path d="M3460 1203 c0 -4 32 -60 70 -123 67 -110 70 -117 70 -178 0 -55 2
-63 18 -60 14 3 18 17 22 73 5 65 10 78 69 175 36 58 66 108 68 113 2 4 -4 7
-14 7 -12 0 -37 -32 -78 -100 -33 -55 -63 -99 -67 -97 -4 1 -34 45 -66 97 -32
52 -66 96 -75 98 -9 2 -17 0 -17 -5z"/>
<path d="M3974 1197 c-2 -7 -3 -89 -2 -182 3 -151 5 -170 20 -173 16 -3 18 11
20 144 l3 148 118 -147 c64 -81 124 -147 132 -147 13 0 15 28 15 185 0 177 -1
185 -20 185 -18 0 -20 -8 -22 -146 l-3 -147 -115 146 c-110 140 -135 163 -146
134z"/>
<path d="M4501 1192 c-11 -21 -123 -263 -147 -319 -13 -31 -13 -33 6 -33 14 0
25 14 41 50 l21 50 103 0 102 0 23 -50 c15 -32 30 -50 41 -50 23 0 20 6 -74
210 -73 156 -95 182 -116 142z m71 -128 c21 -48 38 -88 38 -90 0 -2 -38 -4
-85 -4 -47 0 -85 2 -85 4 0 2 14 35 31 73 17 37 35 79 40 92 5 13 12 21 16 17
3 -3 23 -45 45 -92z"/>
<path d="M4770 1026 c0 -178 1 -186 20 -186 18 0 20 8 22 141 l3 140 68 -115
c38 -64 72 -116 77 -116 5 0 39 52 77 116 l68 116 5 -139 c4 -121 7 -138 23
-141 16 -3 17 11 17 183 0 168 -2 186 -17 183 -9 -2 -50 -62 -92 -135 -42 -72
-80 -128 -84 -124 -4 4 -40 64 -80 132 -104 176 -107 174 -107 -55z"/>
<path d="M5270 1025 l0 -185 131 0 c119 0 130 2 127 18 -3 15 -18 17 -111 20
l-107 3 0 64 0 64 92 3 c62 2 93 7 96 16 3 9 -20 12 -92 12 l-96 0 0 65 0 64
102 3 c89 3 103 5 106 21 3 15 -8 17 -122 17 l-126 0 0 -185z"/>
</g>
</svg>
